<svg width="79" height="81" viewBox="0 0 79 81" fill="none" xmlns="http://www.w3.org/2000/svg">
<g opacity="0.3">
<mask id="mask0_13_946" style="mask-type:alpha" maskUnits="userSpaceOnUse" x="7" y="-8" width="12" height="11">
<path d="M12.7909 2.59581C15.6784 2.59581 18.0193 0.262139 18.0193 -2.61661C18.0193 -5.49536 15.6784 -7.82904 12.7909 -7.82904C9.90333 -7.82904 7.5625 -5.49536 7.5625 -2.61661C7.5625 0.262139 9.90333 2.59581 12.7909 2.59581Z" fill="url(#paint0_linear_13_946)"/>
</mask>
<g mask="url(#mask0_13_946)">
<path d="M12.7909 2.59581C15.6784 2.59581 18.0193 0.262139 18.0193 -2.61661C18.0193 -5.49536 15.6784 -7.82904 12.7909 -7.82904C9.90333 -7.82904 7.5625 -5.49536 7.5625 -2.61661C7.5625 0.262139 9.90333 2.59581 12.7909 2.59581Z" fill="url(#paint1_linear_13_946)"/>
</g>
<mask id="mask1_13_946" style="mask-type:alpha" maskUnits="userSpaceOnUse" x="37" y="-8" width="12" height="11">
<path d="M43.0712 2.59581C45.9587 2.59581 48.2996 0.262139 48.2996 -2.61661C48.2996 -5.49536 45.9587 -7.82904 43.0712 -7.82904C40.1836 -7.82904 37.8428 -5.49536 37.8428 -2.61661C37.8428 0.262139 40.1836 2.59581 43.0712 2.59581Z" fill="url(#paint2_linear_13_946)"/>
</mask>
<g mask="url(#mask1_13_946)">
<path d="M43.0712 2.59581C45.9587 2.59581 48.2996 0.262139 48.2996 -2.61661C48.2996 -5.49536 45.9587 -7.82904 43.0712 -7.82904C40.1836 -7.82904 37.8428 -5.49536 37.8428 -2.61661C37.8428 0.262139 40.1836 2.59581 43.0712 2.59581Z" fill="url(#paint3_linear_13_946)"/>
</g>
<mask id="mask2_13_946" style="mask-type:alpha" maskUnits="userSpaceOnUse" x="68" y="-8" width="11" height="11">
<path d="M73.3524 2.59581C76.24 2.59581 78.5808 0.262139 78.5808 -2.61661C78.5808 -5.49536 76.24 -7.82904 73.3524 -7.82904C70.4648 -7.82904 68.124 -5.49536 68.124 -2.61661C68.124 0.262139 70.4648 2.59581 73.3524 2.59581Z" fill="url(#paint4_linear_13_946)"/>
</mask>
<g mask="url(#mask2_13_946)">
<path d="M73.3524 2.59581C76.24 2.59581 78.5808 0.262139 78.5808 -2.61661C78.5808 -5.49536 76.24 -7.82904 73.3524 -7.82904C70.4648 -7.82904 68.124 -5.49536 68.124 -2.61661C68.124 0.262139 70.4648 2.59581 73.3524 2.59581Z" fill="url(#paint5_linear_13_946)"/>
</g>
<mask id="mask3_13_946" style="mask-type:alpha" maskUnits="userSpaceOnUse" x="7" y="18" width="12" height="11">
<path d="M12.7909 28.7125C15.6784 28.7125 18.0193 26.3788 18.0193 23.5C18.0193 20.6212 15.6784 18.2875 12.7909 18.2875C9.90333 18.2875 7.5625 20.6212 7.5625 23.5C7.5625 26.3788 9.90333 28.7125 12.7909 28.7125Z" fill="url(#paint6_linear_13_946)"/>
</mask>
<g mask="url(#mask3_13_946)">
<path d="M12.7909 28.7125C15.6784 28.7125 18.0193 26.3788 18.0193 23.5C18.0193 20.6212 15.6784 18.2875 12.7909 18.2875C9.90333 18.2875 7.5625 20.6212 7.5625 23.5C7.5625 26.3788 9.90333 28.7125 12.7909 28.7125Z" fill="url(#paint7_linear_13_946)"/>
</g>
<mask id="mask4_13_946" style="mask-type:alpha" maskUnits="userSpaceOnUse" x="37" y="18" width="12" height="11">
<path d="M43.0712 28.7125C45.9587 28.7125 48.2996 26.3788 48.2996 23.5C48.2996 20.6212 45.9587 18.2875 43.0712 18.2875C40.1836 18.2875 37.8428 20.6212 37.8428 23.5C37.8428 26.3788 40.1836 28.7125 43.0712 28.7125Z" fill="url(#paint8_linear_13_946)"/>
</mask>
<g mask="url(#mask4_13_946)">
<path d="M43.0712 28.7125C45.9587 28.7125 48.2996 26.3788 48.2996 23.5C48.2996 20.6212 45.9587 18.2875 43.0712 18.2875C40.1836 18.2875 37.8428 20.6212 37.8428 23.5C37.8428 26.3788 40.1836 28.7125 43.0712 28.7125Z" fill="url(#paint9_linear_13_946)"/>
</g>
<mask id="mask5_13_946" style="mask-type:alpha" maskUnits="userSpaceOnUse" x="68" y="18" width="11" height="11">
<path d="M73.3524 28.7125C76.24 28.7125 78.5808 26.3788 78.5808 23.5C78.5808 20.6212 76.24 18.2875 73.3524 18.2875C70.4648 18.2875 68.124 20.6212 68.124 23.5C68.124 26.3788 70.4648 28.7125 73.3524 28.7125Z" fill="url(#paint10_linear_13_946)"/>
</mask>
<g mask="url(#mask5_13_946)">
<path d="M73.3524 28.7125C76.24 28.7125 78.5808 26.3788 78.5808 23.5C78.5808 20.6212 76.24 18.2875 73.3524 18.2875C70.4648 18.2875 68.124 20.6212 68.124 23.5C68.124 26.3788 70.4648 28.7125 73.3524 28.7125Z" fill="url(#paint11_linear_13_946)"/>
</g>
<mask id="mask6_13_946" style="mask-type:alpha" maskUnits="userSpaceOnUse" x="7" y="44" width="12" height="11">
<path d="M12.7909 54.8834C15.6784 54.8834 18.0193 52.5496 18.0193 49.6709C18.0193 46.7921 15.6784 44.4584 12.7909 44.4584C9.90333 44.4584 7.5625 46.7921 7.5625 49.6709C7.5625 52.5496 9.90333 54.8834 12.7909 54.8834Z" fill="url(#paint12_linear_13_946)"/>
</mask>
<g mask="url(#mask6_13_946)">
<path d="M12.7909 54.8834C15.6784 54.8834 18.0193 52.5496 18.0193 49.6709C18.0193 46.7921 15.6784 44.4584 12.7909 44.4584C9.90333 44.4584 7.5625 46.7921 7.5625 49.6709C7.5625 52.5496 9.90333 54.8834 12.7909 54.8834Z" fill="url(#paint13_linear_13_946)"/>
</g>
<mask id="mask7_13_946" style="mask-type:alpha" maskUnits="userSpaceOnUse" x="37" y="44" width="12" height="11">
<path d="M43.0712 54.8834C45.9587 54.8834 48.2996 52.5496 48.2996 49.6709C48.2996 46.7921 45.9587 44.4584 43.0712 44.4584C40.1836 44.4584 37.8428 46.7921 37.8428 49.6709C37.8428 52.5496 40.1836 54.8834 43.0712 54.8834Z" fill="url(#paint14_linear_13_946)"/>
</mask>
<g mask="url(#mask7_13_946)">
<path d="M43.0712 54.8834C45.9587 54.8834 48.2996 52.5496 48.2996 49.6709C48.2996 46.7921 45.9587 44.4584 43.0712 44.4584C40.1836 44.4584 37.8428 46.7921 37.8428 49.6709C37.8428 52.5496 40.1836 54.8834 43.0712 54.8834Z" fill="url(#paint15_linear_13_946)"/>
</g>
<mask id="mask8_13_946" style="mask-type:alpha" maskUnits="userSpaceOnUse" x="68" y="44" width="11" height="11">
<path d="M73.3524 54.8834C76.24 54.8834 78.5808 52.5496 78.5808 49.6709C78.5808 46.7921 76.24 44.4584 73.3524 44.4584C70.4648 44.4584 68.124 46.7921 68.124 49.6709C68.124 52.5496 70.4648 54.8834 73.3524 54.8834Z" fill="url(#paint16_linear_13_946)"/>
</mask>
<g mask="url(#mask8_13_946)">
<path d="M73.3524 54.8834C76.24 54.8834 78.5808 52.5496 78.5808 49.6709C78.5808 46.7921 76.24 44.4584 73.3524 44.4584C70.4648 44.4584 68.124 46.7921 68.124 49.6709C68.124 52.5496 70.4648 54.8834 73.3524 54.8834Z" fill="url(#paint17_linear_13_946)"/>
</g>
<mask id="mask9_13_946" style="mask-type:alpha" maskUnits="userSpaceOnUse" x="7" y="70" width="12" height="11">
<path d="M12.7909 81C15.6784 81 18.0193 78.6663 18.0193 75.7876C18.0193 72.9088 15.6784 70.575 12.7909 70.575C9.90333 70.575 7.5625 72.9088 7.5625 75.7876C7.5625 78.6663 9.90333 81 12.7909 81Z" fill="url(#paint18_linear_13_946)"/>
</mask>
<g mask="url(#mask9_13_946)">
<path d="M12.7909 81C15.6784 81 18.0193 78.6663 18.0193 75.7876C18.0193 72.9088 15.6784 70.575 12.7909 70.575C9.90333 70.575 7.5625 72.9088 7.5625 75.7876C7.5625 78.6663 9.90333 81 12.7909 81Z" fill="url(#paint19_linear_13_946)"/>
</g>
<mask id="mask10_13_946" style="mask-type:alpha" maskUnits="userSpaceOnUse" x="37" y="70" width="12" height="11">
<path d="M43.0712 81C45.9587 81 48.2996 78.6663 48.2996 75.7876C48.2996 72.9088 45.9587 70.575 43.0712 70.575C40.1836 70.575 37.8428 72.9088 37.8428 75.7876C37.8428 78.6663 40.1836 81 43.0712 81Z" fill="url(#paint20_linear_13_946)"/>
</mask>
<g mask="url(#mask10_13_946)">
<path d="M43.0712 81C45.9587 81 48.2996 78.6663 48.2996 75.7876C48.2996 72.9088 45.9587 70.575 43.0712 70.575C40.1836 70.575 37.8428 72.9088 37.8428 75.7876C37.8428 78.6663 40.1836 81 43.0712 81Z" fill="url(#paint21_linear_13_946)"/>
</g>
<mask id="mask11_13_946" style="mask-type:alpha" maskUnits="userSpaceOnUse" x="68" y="70" width="11" height="11">
<path d="M73.3524 81C76.24 81 78.5808 78.6663 78.5808 75.7876C78.5808 72.9088 76.24 70.575 73.3524 70.575C70.4648 70.575 68.124 72.9088 68.124 75.7876C68.124 78.6663 70.4648 81 73.3524 81Z" fill="url(#paint22_linear_13_946)"/>
</mask>
<g mask="url(#mask11_13_946)">
<path d="M73.3524 81C76.24 81 78.5808 78.6663 78.5808 75.7876C78.5808 72.9088 76.24 70.575 73.3524 70.575C70.4648 70.575 68.124 72.9088 68.124 75.7876C68.124 78.6663 70.4648 81 73.3524 81Z" fill="url(#paint23_linear_13_946)"/>
</g>
</g>
<defs>
<linearGradient id="paint0_linear_13_946" x1="45.4628" y1="80.062" x2="-25.9376" y2="-101.74" gradientUnits="userSpaceOnUse">
<stop/>
<stop offset="1" stop-color="white"/>
</linearGradient>
<linearGradient id="paint1_linear_13_946" x1="45.4628" y1="80.062" x2="-25.9376" y2="-101.74" gradientUnits="userSpaceOnUse">
<stop stop-color="#97C3F9"/>
<stop offset="1" stop-color="#93C1F9"/>
</linearGradient>
<linearGradient id="paint2_linear_13_946" x1="71.6663" y1="69.7708" x2="0.265912" y2="-112.032" gradientUnits="userSpaceOnUse">
<stop/>
<stop offset="1" stop-color="white"/>
</linearGradient>
<linearGradient id="paint3_linear_13_946" x1="71.6663" y1="69.7708" x2="0.265912" y2="-112.032" gradientUnits="userSpaceOnUse">
<stop stop-color="#97C3F9"/>
<stop offset="1" stop-color="#93C1F9"/>
</linearGradient>
<linearGradient id="paint4_linear_13_946" x1="97.8709" y1="59.4794" x2="26.4705" y2="-122.323" gradientUnits="userSpaceOnUse">
<stop/>
<stop offset="1" stop-color="white"/>
</linearGradient>
<linearGradient id="paint5_linear_13_946" x1="97.8709" y1="59.4794" x2="26.4705" y2="-122.323" gradientUnits="userSpaceOnUse">
<stop stop-color="#97C3F9"/>
<stop offset="1" stop-color="#93C1F9"/>
</linearGradient>
<linearGradient id="paint6_linear_13_946" x1="36.5204" y1="83.5749" x2="-34.8811" y2="-98.2288" gradientUnits="userSpaceOnUse">
<stop/>
<stop offset="1" stop-color="white"/>
</linearGradient>
<linearGradient id="paint7_linear_13_946" x1="36.5204" y1="83.5749" x2="-34.8811" y2="-98.2288" gradientUnits="userSpaceOnUse">
<stop stop-color="#97C3F9"/>
<stop offset="1" stop-color="#93C1F9"/>
</linearGradient>
<linearGradient id="paint8_linear_13_946" x1="62.7239" y1="73.2833" x2="-8.6777" y2="-108.52" gradientUnits="userSpaceOnUse">
<stop/>
<stop offset="1" stop-color="white"/>
</linearGradient>
<linearGradient id="paint9_linear_13_946" x1="62.7239" y1="73.2833" x2="-8.6777" y2="-108.52" gradientUnits="userSpaceOnUse">
<stop stop-color="#97C3F9"/>
<stop offset="1" stop-color="#93C1F9"/>
</linearGradient>
<linearGradient id="paint10_linear_13_946" x1="88.9285" y1="62.9919" x2="17.5268" y2="-118.812" gradientUnits="userSpaceOnUse">
<stop/>
<stop offset="1" stop-color="white"/>
</linearGradient>
<linearGradient id="paint11_linear_13_946" x1="88.9285" y1="62.9919" x2="17.5268" y2="-118.812" gradientUnits="userSpaceOnUse">
<stop stop-color="#97C3F9"/>
<stop offset="1" stop-color="#93C1F9"/>
</linearGradient>
<linearGradient id="paint12_linear_13_946" x1="27.578" y1="87.0868" x2="-43.8235" y2="-94.7168" gradientUnits="userSpaceOnUse">
<stop/>
<stop offset="1" stop-color="white"/>
</linearGradient>
<linearGradient id="paint13_linear_13_946" x1="27.578" y1="87.0868" x2="-43.8235" y2="-94.7168" gradientUnits="userSpaceOnUse">
<stop stop-color="#97C3F9"/>
<stop offset="1" stop-color="#93C1F9"/>
</linearGradient>
<linearGradient id="paint14_linear_13_946" x1="53.7816" y1="76.7955" x2="-17.6201" y2="-105.008" gradientUnits="userSpaceOnUse">
<stop/>
<stop offset="1" stop-color="white"/>
</linearGradient>
<linearGradient id="paint15_linear_13_946" x1="53.7816" y1="76.7955" x2="-17.6201" y2="-105.008" gradientUnits="userSpaceOnUse">
<stop stop-color="#97C3F9"/>
<stop offset="1" stop-color="#93C1F9"/>
</linearGradient>
<linearGradient id="paint16_linear_13_946" x1="79.9861" y1="66.5039" x2="8.58447" y2="-115.3" gradientUnits="userSpaceOnUse">
<stop/>
<stop offset="1" stop-color="white"/>
</linearGradient>
<linearGradient id="paint17_linear_13_946" x1="79.9861" y1="66.5039" x2="8.58447" y2="-115.3" gradientUnits="userSpaceOnUse">
<stop stop-color="#97C3F9"/>
<stop offset="1" stop-color="#93C1F9"/>
</linearGradient>
<linearGradient id="paint18_linear_13_946" x1="18.6357" y1="90.5989" x2="-52.7659" y2="-91.2047" gradientUnits="userSpaceOnUse">
<stop/>
<stop offset="1" stop-color="white"/>
</linearGradient>
<linearGradient id="paint19_linear_13_946" x1="18.6357" y1="90.5989" x2="-52.7659" y2="-91.2047" gradientUnits="userSpaceOnUse">
<stop stop-color="#97C3F9"/>
<stop offset="1" stop-color="#93C1F9"/>
</linearGradient>
<linearGradient id="paint20_linear_13_946" x1="44.8392" y1="80.3074" x2="-26.5624" y2="-101.496" gradientUnits="userSpaceOnUse">
<stop/>
<stop offset="1" stop-color="white"/>
</linearGradient>
<linearGradient id="paint21_linear_13_946" x1="44.8392" y1="80.3074" x2="-26.5624" y2="-101.496" gradientUnits="userSpaceOnUse">
<stop stop-color="#97C3F9"/>
<stop offset="1" stop-color="#93C1F9"/>
</linearGradient>
<linearGradient id="paint22_linear_13_946" x1="71.0438" y1="70.016" x2="-0.357873" y2="-111.788" gradientUnits="userSpaceOnUse">
<stop/>
<stop offset="1" stop-color="white"/>
</linearGradient>
<linearGradient id="paint23_linear_13_946" x1="71.0438" y1="70.016" x2="-0.357873" y2="-111.788" gradientUnits="userSpaceOnUse">
<stop stop-color="#97C3F9"/>
<stop offset="1" stop-color="#93C1F9"/>
</linearGradient>
</defs>
</svg>
